<svg xmlns="http://www.w3.org/2000/svg" xmlns:xlink="http://www.w3.org/1999/xlink" viewBox="0 0 106.25 85" fill="#fff" fill-rule="evenodd" stroke="#000" stroke-linecap="round" stroke-linejoin="round"><use xlink:href="#A" x="3.125" y="2.5"/><symbol id="A" overflow="visible"><path d="M63.645 15.98c-1.884-1.895-4.939-1.895-6.822 0L26.121 46.864a9.61 9.61 0 0 1-13.645 0c-3.771-3.79-3.771-9.935 0-13.727L42.587 2.848a9.61 9.61 0 0 0-13.646 0L5.651 26.275c-7.535 7.581-7.535 19.87 0 27.453a19.22 19.22 0 0 0 27.291 0l30.703-30.884c1.883-1.895 1.883-4.968 0-6.863h0zM73.879 5.687c-7.537-7.582-19.754-7.582-27.291 0L15.886 36.569c-1.883 1.894-1.883 4.969 0 6.863s4.938 1.895 6.822 0L53.412 12.55c3.768-3.791 9.876-3.791 13.643 0a4.81 4.81 0 0 0 6.824 0c1.884-1.897 1.884-4.968 0-6.863h0zm10.235 30.882a4.81 4.81 0 0 0-6.824 0L46.588 67.452a9.61 9.61 0 0 1-13.646 0c-1.883-1.894-4.937-1.894-6.821 0a4.87 4.87 0 0 0 0 6.862 19.22 19.22 0 0 0 27.291 0l30.702-30.882c1.883-1.894 1.883-4.969 0-6.863h0zm10.235-10.293a19.22 19.22 0 0 0-27.291 0L36.354 57.159c-1.884 1.893-1.884 4.968 0 6.862s4.94 1.896 6.823 0l30.702-30.883a9.61 9.61 0 0 1 13.645 0 9.75 9.75 0 0 1 0 13.725L57.413 77.154c3.768 3.789 9.875 3.789 13.646 0l23.29-23.426c7.535-7.582 7.535-19.871 0-27.452h0z" fill="#1a1918" stroke="none"/></symbol></svg>