<svg width="1178" height="725" viewBox="0 0 1178 725" fill="none" xmlns="http://www.w3.org/2000/svg">
<g id="undraw_under_construction_46pa 1">
<path id="Vector" d="M314.43 426.85C312.272 426.875 310.12 426.636 308.02 426.14C305.9 425.645 304.031 424.398 302.76 422.63C302.02 421.51 301.54 420.1 300.36 419.47C298.43 418.47 296.23 420.16 294.69 421.71C293.288 423.239 291.663 424.547 289.87 425.59C287.73 426.72 285.23 427.12 283.21 428.45C281.632 429.642 280.278 431.105 279.21 432.77L265.04 452.07C259.35 459.83 254.4 468.16 249.33 476.35C244.94 483.44 242.64 491.6 239.33 499.25C239.068 499.718 238.959 500.257 239.02 500.79C239.14 501.31 239.77 501.73 240.21 501.43C238.72 502.91 240.03 505.43 239.68 507.51C239.282 508.965 238.452 510.266 237.3 511.24C239.501 510.953 241.736 511.058 243.9 511.55C246.137 512.184 248.248 513.199 250.14 514.55C251.35 514.36 251.24 512.21 252.14 511.41C252.68 510.94 253.48 511 254.19 510.86C256.86 510.34 257.92 507.13 259.97 505.32C261.68 503.81 264.1 503.32 265.91 501.9C268.85 499.59 269.48 495.48 271.02 492.07C272.33 489.18 274.39 486.66 275.54 483.7C276.29 481.78 276.65 479.7 277.72 477.93C279.43 475.07 282.65 473.55 285.72 472.18C287.66 471.31 289.72 470.41 291.81 470.55C291.7 475.2 291.11 479.78 292.12 484.32C292.47 485.92 292.96 487.48 293.38 489.07C295.29 496.23 295.74 503.69 295.83 511.07C300.425 510.019 305.117 509.456 309.83 509.39C313.54 509.28 317.24 509.76 320.95 509.69C325.35 509.61 329.7 508.76 334.1 508.46C338.5 508.16 343.1 508.46 346.99 510.46C346.674 504.122 346.851 497.77 347.52 491.46L348.58 481.52C348.819 478.632 349.264 475.765 349.91 472.94C350.49 470.66 351.33 468.46 351.97 466.19C354.22 458.19 353.81 449.65 353.38 441.32C353.16 437.04 351.51 432.83 349.57 429.02C348.868 427.605 348.066 426.241 347.17 424.94C344.826 421.71 341.702 419.126 338.089 417.43C334.476 415.734 330.493 414.98 326.51 415.24C326.001 415.256 325.5 415.364 325.03 415.56C324.186 416.1 323.527 416.885 323.14 417.81C321.071 421.529 318.069 424.644 314.43 426.85Z" fill="#3F3D56"/>
<path id="Vector_2" d="M316.76 460.8L311.69 449.74C310.947 448.207 310.305 446.627 309.77 445.01C309.19 443.08 308.91 441.08 308.37 439.14C306.59 432.68 302.1 427.3 299.91 420.97C299.772 420.398 299.489 419.872 299.09 419.44C298.77 419.214 298.405 419.061 298.02 418.992C297.634 418.923 297.238 418.939 296.86 419.04C293.8 419.57 291.41 421.9 288.61 423.22C287.31 423.82 285.91 424.22 284.61 424.91C283.96 425.218 283.384 425.662 282.922 426.212C282.459 426.763 282.121 427.407 281.93 428.1C281.62 429.63 282.38 431.1 283.02 432.59C285.74 438.73 286.36 445.59 286.48 452.31C286.57 456.83 286.34 461.68 283.67 465.31C278.54 472.31 281.82 482.59 283.74 491.06C283.97 492.06 284.24 493.14 284.4 494.2C284.569 495.526 284.646 496.863 284.63 498.2C284.63 502.69 284.38 507.32 282.5 511.39C284.356 512.378 286.402 512.957 288.5 513.09C294.307 513.83 300.137 514.35 305.99 514.65C307.824 514.822 309.673 514.728 311.48 514.37C313.626 513.79 315.517 512.512 316.855 510.737C318.194 508.962 318.902 506.792 318.87 504.57C319.19 507.34 319.78 510.35 321.79 512.27C323.8 514.19 326.73 514.48 329.46 514.63C337.165 515.039 344.89 514.821 352.56 513.98C353.05 513.958 353.531 513.846 353.98 513.65C355.46 512.91 355.54 510.87 355.42 509.23C355.2 506.16 354.97 503.09 354.6 500.04C354.286 498.096 354.126 496.129 354.12 494.16C354.272 492.134 354.607 490.126 355.12 488.16C356.46 481.92 357.52 475.55 357.07 469.16C356.892 467.603 356.829 466.036 356.88 464.47C357.14 460.94 359 457.58 358.65 454.07C357.65 443.75 356.84 433.16 353.96 423.2C353.44 421.42 352.78 419.51 351.23 418.49C349.23 417.15 346.42 417.85 344.13 417C343.055 416.5 342.034 415.894 341.08 415.19C339.008 413.894 336.632 413.163 334.19 413.07C332.35 413 330.3 413.41 329.19 414.89C328.676 415.723 328.336 416.652 328.19 417.62C326.74 423.72 325.04 429.75 323.34 435.78L321.71 441.56L317.34 457.08C316.91 458.73 317.2 459.24 316.76 460.8Z" fill="#F9A826"/>
<path id="Vector_3" d="M354.32 421.54C357.799 421.53 361.258 422.066 364.57 423.13C367.897 424.21 370.844 426.223 373.06 428.93C373.705 429.687 374.164 430.584 374.4 431.55C374.6 432.55 377.86 433.15 377.14 433.83C379.33 433.48 378.81 434.51 381.03 434.49C383.25 434.47 385.65 433.9 386.98 432.13C387.904 430.676 388.316 428.955 388.15 427.24C388.179 426.053 387.954 424.873 387.49 423.78C386.49 421.68 384.19 420.55 382.07 419.58L364.21 411.41C363.174 410.859 362.062 410.465 360.91 410.24C359.941 410.148 358.964 410.172 358 410.31L349.91 411.24C351.679 412.385 353.12 413.971 354.089 415.842C355.059 417.713 355.525 419.804 355.44 421.91" fill="#3F3D56"/>
<path id="Vector_4" d="M368.49 446.95C369.41 446.076 370.393 445.271 371.43 444.54C374.2 442.69 377.55 441.96 380.66 440.78C383.77 439.6 386.93 437.69 388.14 434.59C388.746 432.651 388.943 430.609 388.72 428.59C388.749 427.745 388.599 426.903 388.28 426.12C387.899 425.428 387.357 424.838 386.7 424.4C382.48 421.28 376.82 421.03 371.58 421.35C360.027 422.066 348.704 424.893 338.17 429.69C337.613 429.874 337.125 430.223 336.77 430.69C336.565 431.123 336.472 431.601 336.5 432.08C336.314 435.029 336.697 437.986 337.63 440.79C339.01 444.35 341.85 447.22 343.04 450.85C343.58 452.48 343.76 454.21 344.23 455.85C344.616 457.544 345.617 459.034 347.04 460.03C350.99 462.39 354.72 459.22 357.46 456.76L368.49 446.95Z" fill="#3F3D56"/>
<g id="Group 1">
<path id="Vector_5" d="M157.82 676.73L168.31 676.7H183.1L201.8 372.92L386.99 63.89L378.94 55.25V33.37L178.66 365.76L157.82 676.73Z" fill="#F9A826"/>
<path id="Vector_6" opacity="0.1" d="M169.43 676.7H183.1L201.8 372.92L386.99 63.89L378.94 55.25L187.92 368.29L169.43 676.7Z" fill="#352323"/>
<path id="Vector_7" d="M126.91 679.26L606.76 715.98L607.17 716.01L1071.56 687.45L1071.91 687.43V667.82L560.21 658.43L133.3 658.02H130.18L129.84 660.22L126.91 679.26Z" fill="#F9A826"/>
<path id="Vector_8" opacity="0.1" d="M126.91 679.26L606.76 715.98L607.17 716.01L1071.56 687.45L1071.91 687.07V668.23H1071.5L606.76 683.75L133.3 658.02H133.23L132.39 658.57L129.84 660.22L126.91 679.26Z" fill="#352323"/>
<path id="Vector_9" opacity="0.1" d="M126.91 679.26L606.76 715.98V683.75L132.39 658.57L129.84 660.22L126.91 679.26Z" fill="#352323"/>
<path id="Vector_10" d="M378.88 54.84L590.43 281.9L583.89 681.3L601.86 683.47L602.16 683.51H620.13L622.28 299.05L1018.41 431.37L1025.09 666.97L1039.55 668.59L1044.45 669.14L1033.11 415.03L619.01 269.65L391.95 33.6H378.88V54.84Z" fill="#F9A826"/>
<path id="Vector_11" opacity="0.1" d="M620.65 291.7L622.28 299.05L1018.41 431.37L1025.09 666.97L1039.55 668.59L1028.21 426.47L620.65 291.7Z" fill="#352323"/>
<path id="Vector_12" opacity="0.1" d="M378.88 54.84L590.43 281.9L583.89 681.3L601.86 683.47L606.76 268.83L378.88 33.6V54.84Z" fill="#352323"/>
<path id="Vector_13" d="M621.42 451.99L766.71 480.6L766.76 480.61L1021.23 530.74L1032.88 526.07L1032.84 525.25L1032.08 509L621.57 426.05L621.42 451.99Z" fill="#F9A826"/>
<path id="Vector_14" opacity="0.1" d="M766.76 480.61L1021.23 530.74L1032.88 526.07L1032.84 525.25L766.76 480.61Z" fill="#352323"/>
<path id="Vector_15" d="M776.49 350.56L780.42 566.9L782.45 677.89L800.34 677.29L811.6 676.91L808.1 353.69L800.34 351.11L798.64 350.56H776.49Z" fill="#F9A826"/>
<path id="Vector_16" opacity="0.1" d="M776.65 350.51V350.56L780.42 566.9L782.45 677.89L800.34 677.29V350.51H776.65Z" fill="#352323"/>
<path id="Vector_17" d="M588.91 358.04V367.89L420.24 400.79L411.49 406.09H381.3V400.54L547.02 360.5L588.91 358.04Z" fill="#F9A826"/>
<path id="Vector_18" opacity="0.1" d="M588.91 367.89L420.24 400.79L411.49 406.09H381.3L548.25 370.36L588.91 367.89Z" fill="#352323"/>
<path id="Vector_19" opacity="0.1" d="M438.75 502.21V510.37L431.86 510.83H395.62V502.21H438.75Z" fill="#352323"/>
<path id="Vector_20" d="M438.75 502.21V510.83H395.62L281.04 367.3V360.52H305.06L438.75 502.21Z" fill="#F9A826"/>
<path id="Vector_21" opacity="0.1" d="M438.75 502.21V510.83H395.62L281.04 367.3V360.52H305.06L438.75 502.21Z" fill="#352323"/>
<path id="Vector_22" opacity="0.1" d="M438.75 502.21V510.83H395.62L281.04 367.3V360.52L396.24 502.21H438.75Z" fill="#352323"/>
<path id="Vector_23" d="M342.33 400.25L439.06 501.9V510.52H395.93L323.24 415.65" fill="#F9A826"/>
<path id="Vector_24" opacity="0.1" d="M324.78 414.31L325.09 414.42L396.55 501.9H439.06V510.52H395.93L323.24 415.65L324.78 414.31Z" fill="#352323"/>
<path id="Vector_25" opacity="0.1" d="M342.33 400.25L439.06 501.9V510.52H395.93L323.24 415.65" fill="#352323"/>
<path id="Vector_26" opacity="0.2" d="M588.91 358.04V367.89L548.25 370.36L547.02 360.5L588.91 358.04Z" fill="#352323"/>
</g>
<path id="Vector_27" d="M496.26 405.81C497.31 406.38 498.313 407.032 499.26 407.76C500.38 408.741 501.387 409.844 502.26 411.05C506.55 416.6 510.51 423.05 510.09 430.05C510.099 431.068 509.907 432.079 509.524 433.022C509.141 433.966 508.576 434.825 507.86 435.55C506.09 437.06 503.55 437.13 501.23 437.13C498.71 437.13 496.06 437.13 493.88 435.83C491.7 434.53 489.88 432 487.3 432.06C486.936 432.12 486.564 432.12 486.2 432.06C485.31 431.77 485.13 430.6 484.55 429.86C483.55 428.53 481.44 428.86 479.87 429.44C478.3 430.02 476.56 430.89 475.01 430.22C474.11 429.745 473.375 429.01 472.9 428.11C469.19 422.11 468.4 414.9 467.7 407.93C467.27 403.69 463.99 389.23 473.04 392.52C477.04 393.96 480.78 396.84 484.42 398.95L496.26 405.81Z" fill="#3F3D56"/>
<path id="Vector_28" d="M487.32 407.24C488.128 407.821 489.108 408.116 490.103 408.076C491.098 408.036 492.051 407.664 492.81 407.02C494.299 405.675 495.248 403.833 495.48 401.84C496.48 401.53 496.99 402.84 497.63 403.64C498.75 405 501.03 404.98 502.05 406.43C502.76 407.43 502.6 408.82 503.1 409.95C503.75 411.41 505.36 412.17 506.46 413.35C507.499 414.639 508.249 416.136 508.66 417.74L510.3 422.66C511.085 424.706 511.589 426.849 511.8 429.03C511.903 430.12 511.789 431.22 511.462 432.266C511.136 433.312 510.605 434.282 509.9 435.12C507.7 437.49 504.09 437.74 500.9 437.67C499.835 437.693 498.771 437.568 497.74 437.3C494.91 436.42 493.1 433.57 492.35 430.7C491.6 427.83 491.68 424.82 491.24 421.88C490.765 418.992 489.925 416.176 488.74 413.5C487.86 411.42 485.44 408.32 485.48 406.11C486.2 406.11 486.72 406.77 487.32 407.24Z" fill="#3F3D56"/>
<path id="Vector_29" d="M490.91 397.11C490.442 395.69 490.17 394.213 490.1 392.72C490.1 389.72 491.47 386.9 492.85 384.22L481.42 385.77C480.04 385.96 478.5 386.24 477.72 387.39C477.424 387.96 477.269 388.593 477.269 389.235C477.269 389.877 477.424 390.51 477.72 391.08C478.293 392.221 478.749 393.417 479.08 394.65C479.106 395.729 479.23 396.803 479.45 397.86C479.806 398.636 480.304 399.338 480.92 399.93C484.19 403.55 486.64 407.82 489.08 412.05C489.01 411.93 495.97 406.54 495.69 404.78C495.53 403.78 493.52 402.58 492.88 401.62C491.996 400.227 491.331 398.705 490.91 397.11V397.11Z" fill="#BE6F72"/>
<path id="Vector_30" d="M453.49 637.66C451.611 635.384 449.016 633.811 446.129 633.197C443.242 632.584 440.233 632.965 437.59 634.28C437.024 634.546 436.526 634.936 436.13 635.42C435.13 636.82 435.77 638.75 435.86 640.48C436.09 644.7 432.73 648.13 429.71 651.08C428.09 652.66 426.44 654.35 425.71 656.5C424.98 658.65 425.52 661.38 427.48 662.5C428.335 662.929 429.266 663.187 430.22 663.26C433.416 663.884 436.694 663.975 439.92 663.53C443.11 662.92 446.24 661.11 447.62 658.17C447.886 657.373 448.327 656.645 448.91 656.04C450.67 654.65 453.37 656.28 455.37 655.29C457.02 654.47 457.09 653.18 457.11 651.48C457.17 646.78 456.47 641.46 453.49 637.66Z" fill="#F9A826"/>
<path id="Vector_31" d="M477.49 637.48C478.72 640.72 478.89 644.25 479.05 647.71C479.14 649.71 479.2 651.85 478.12 653.54C477.04 655.23 474.93 656.12 472.91 656.54C468.74 657.4 463.91 656.59 461.22 653.28C459.16 650.75 458.73 647.28 459.11 644C459.43 641.31 460.11 638.16 458.18 636.25C457.68 635.74 457.03 635.38 456.57 634.83C455.57 633.61 455.73 631.77 456.27 630.27C456.973 628.835 457.5 627.321 457.84 625.76C457.92 625.02 471.38 626.28 472.62 626.89C474.31 627.72 474.05 629.11 474.56 630.79C475.27 633.13 476.63 635.24 477.49 637.48Z" fill="#F9A826"/>
<path id="Vector_32" d="M479.96 493.82C482.6 495.53 483.62 498.89 484.03 502.01C485.16 510.56 483.18 519.2 483.03 527.83C482.89 539.92 486.39 552.23 483.4 563.94C481.61 570.94 483.13 578.94 481.45 586.01C480.95 588.11 480.03 590.09 479.55 592.19C478.55 596.74 479.6 601.5 481.01 605.95C481.46 607.149 481.746 608.404 481.86 609.68C481.792 611.644 481.294 613.57 480.4 615.32L474.4 629.51C473.73 631.1 471.09 631.36 469.4 631.57C466.22 631.95 462.67 632.22 460.14 630.25C457.61 628.28 457 624.98 456.61 621.9C455.862 615.987 455.528 610.029 455.61 604.07C455.72 602.515 455.582 600.952 455.2 599.44C454.65 597.73 453.44 596.25 453.11 594.44C452.69 592.1 453.88 589.8 454.32 587.44C454.622 585.284 454.588 583.095 454.22 580.95C453.83 577.75 453.38 574.55 452.87 571.37C452.15 566.92 453.18 562.53 453.87 558.07C454.52 553.88 453.69 549.61 452.87 545.45C452.941 548.826 452.52 552.195 451.62 555.45C451.09 557.04 450.33 558.56 449.87 560.18C447.82 567.45 452.19 575.08 451.57 582.61C451.28 586.13 449.9 589.61 450.29 593.08C450.56 595.62 451.74 597.95 452.55 600.37C453.36 602.79 453.78 605.56 452.55 607.82C449.3 613.96 451.73 622.31 454.64 628.61C455.231 629.727 455.745 630.883 456.18 632.07C457.04 634.91 456.32 637.96 456.55 640.92C455.713 641.057 454.855 641.001 454.042 640.757C453.229 640.513 452.483 640.086 451.86 639.51C451.42 639.05 451.06 638.51 450.63 638.03C449.429 636.885 448.006 635.997 446.45 635.42C445.536 634.909 444.495 634.669 443.45 634.73C442.351 635.037 441.362 635.651 440.6 636.5C439.611 637.37 438.562 638.168 437.46 638.89C436.991 639.251 436.442 639.494 435.86 639.6C435.567 639.645 435.268 639.597 435.004 639.463C434.74 639.328 434.525 639.114 434.39 638.85C434.328 638.683 434.29 638.508 434.28 638.33C433.909 635.311 433.712 632.272 433.69 629.23C433.69 624 427.43 620.4 426.64 615.23C426.01 611.06 427.18 606.81 426.79 602.61C426.6 600.45 426 598.33 426.04 596.17C426.04 594.77 426.36 593.4 426.47 592.01C426.562 590.467 426.538 588.919 426.4 587.38L426.09 582.55C425.79 577.78 425.46 572.91 423.58 568.55C421.351 563.459 420.031 558.017 419.68 552.47C419.48 548.97 419.61 545.47 419.21 541.96C418.85 538.79 418.05 535.64 418.28 532.46C418.47 530 419.28 527.62 419.47 525.16C419.86 520.43 418.06 515.83 416.65 511.3C415.24 506.77 414.2 501.75 416.05 497.38C416.314 496.663 416.754 496.023 417.33 495.52C418.039 495.051 418.847 494.75 419.69 494.64C436.847 491.036 454.434 489.914 471.91 491.31C474.759 491.472 477.524 492.334 479.96 493.82Z" fill="#3F3D56"/>
<path id="Vector_33" d="M423.19 387.61C432.038 387.61 439.21 380.438 439.21 371.59C439.21 362.742 432.038 355.57 423.19 355.57C414.342 355.57 407.17 362.742 407.17 371.59C407.17 380.438 414.342 387.61 423.19 387.61Z" fill="#BE6F72"/>
<path id="Vector_34" d="M420.09 391.6C420.32 392.516 420.32 393.474 420.09 394.39C419.838 395.03 419.483 395.624 419.04 396.15C417.489 398.15 415.773 400.017 413.91 401.73C414.859 403.85 416.568 405.538 418.7 406.46C420.817 407.361 423.037 407.996 425.31 408.35C426.445 408.648 427.625 408.73 428.79 408.59C429.863 408.32 430.88 407.86 431.79 407.23L440.69 401.9C442.033 401.173 443.277 400.275 444.39 399.23C446.022 397.552 446.946 395.311 446.97 392.97C447.011 392.551 446.898 392.131 446.65 391.79C446.309 391.493 445.881 391.314 445.43 391.28C442.3 390.59 439.83 388.05 438.43 385.17C437.164 382.218 436.345 379.094 436 375.9L426.51 380.9C425.1 381.65 423.7 382.4 422.24 383.05C421.31 383.47 419.43 383.82 418.77 384.67C417.51 386.24 419.76 389.71 420.09 391.6Z" fill="#BE6F72"/>
<path id="Vector_35" d="M413.97 398.82C412.619 399.928 411.564 401.354 410.9 402.97C410.28 404.97 410.9 407.08 411.46 409.06C414.085 417.499 416.09 426.119 417.46 434.85C418.3 440.85 418.61 446.94 419.02 453.01C419.86 465.39 421.08 485.13 422.71 497.43C428.71 497.7 434.56 495.95 440.51 495.31C451.63 494.13 463.08 496.83 473.97 494.31C471.33 483.88 468.69 466.07 466.05 455.65C464.882 451.545 464.072 447.345 463.63 443.1C463.4 440.05 463.54 436.99 463.58 433.92C463.67 427.92 463.34 421.92 463.01 415.92C462.63 408.92 462.25 401.92 460.59 395.07C460.474 394.197 460.065 393.39 459.43 392.78C458.43 392.05 457.13 392.31 455.94 392.47C452.296 392.933 448.608 392.059 445.56 390.01C444.24 389.11 442.47 388.01 441.24 389.01C440.715 389.613 440.369 390.351 440.24 391.14C439.696 392.555 438.856 393.837 437.776 394.901C436.697 395.965 435.402 396.786 433.98 397.31C431.13 398.342 428.146 398.955 425.12 399.13C424.194 399.329 423.228 399.22 422.37 398.82C420.95 397.95 420.85 394.82 419.06 394.61C417.49 394.43 415.03 397.81 413.97 398.82Z" fill="#3F3D56"/>
<path id="Vector_36" d="M437.63 423.24C433.94 419.71 432.32 414.59 429.63 410.24C427.798 407.315 425.458 404.741 422.72 402.64C421.343 401.731 420.081 400.66 418.96 399.45C418.01 398.28 417.29 396.72 415.85 396.27C415.255 396.141 414.637 396.158 414.05 396.32C413.463 396.482 412.924 396.784 412.48 397.2C411.598 398.04 410.764 398.928 409.98 399.86C405.74 404.25 398.29 404.86 394.93 409.94C394.023 411.017 393.407 412.308 393.14 413.69C392.173 421.084 394.084 428.566 398.48 434.59C399.331 435.986 400.638 437.046 402.18 437.59C401.971 439.455 402.218 441.342 402.9 443.09C404.752 449.419 407.027 455.616 409.71 461.64C409.068 463.996 408.62 466.401 408.37 468.83C407.67 474.94 408.32 481.14 407.66 487.26C407.12 492.26 405.66 497.13 405.61 502.14C405.61 502.94 405.68 503.89 406.37 504.3C406.737 504.489 407.148 504.575 407.56 504.55L419.86 504.92C427 505.13 434.21 505.34 441.24 504.02C442.176 503.882 443.084 503.595 443.93 503.17C446.31 501.84 447.1 498.84 447.48 496.17C447.976 492.707 448.174 489.207 448.07 485.71C449.56 490.42 451.33 495.29 455.83 497.33C458.21 498.41 460.93 498.33 463.54 498.26C469.165 498.01 474.772 497.432 480.33 496.53C480.673 496.573 481.02 496.534 481.345 496.418C481.67 496.302 481.964 496.112 482.202 495.862C482.44 495.612 482.616 495.31 482.717 494.98C482.817 494.649 482.839 494.3 482.78 493.96L482.84 488.5C482.96 477.41 480.21 466.81 479.14 455.77C478.8 452.29 478.83 448.77 477.98 445.36C477.63 443.93 477.12 442.53 476.81 441.09C476.543 439.68 476.376 438.253 476.31 436.82L475.53 425.82C475.16 420.73 474.63 415.82 474.24 410.74C474.026 405.793 473.309 400.881 472.1 396.08C471.23 393.08 469.42 389.68 466.29 389.31C464.62 389.12 463 389.85 461.41 390.36C457.502 391.59 453.308 391.573 449.41 390.31C448.206 389.835 446.951 389.499 445.67 389.31C445.025 389.222 444.369 389.308 443.768 389.557C443.167 389.807 442.643 390.211 442.25 390.73C441.862 391.511 441.679 392.379 441.72 393.25C441.25 403.24 440.38 413.53 437.63 423.24Z" fill="#F9A826"/>
<path id="Vector_37" d="M421.54 423.54C416.93 418.68 412.2 413.73 406.26 410.64C403.92 409.42 401.26 408.5 398.67 408.96C396.08 409.42 393.67 411.67 393.79 414.3C393.87 415.93 394.86 417.37 395.17 418.97C395.53 420.77 395.01 422.69 395.57 424.43C396.025 425.577 396.705 426.62 397.57 427.5L404.65 435.89C407.65 439.39 410.65 442.94 414.51 445.36C418.37 447.78 423.37 448.91 427.61 447.19C430.627 445.788 433.135 443.486 434.79 440.6C436.55 437.8 437.79 434.74 439.44 431.85C442.008 427.232 445.397 423.122 449.44 419.72C447.36 419.18 444.75 418.42 443.44 416.72C443.067 416.179 442.749 415.603 442.49 415L440.87 411.5C440.319 411.471 439.768 411.557 439.252 411.751C438.736 411.946 438.265 412.245 437.87 412.63C437.175 413.433 436.43 414.191 435.64 414.9C434.23 415.96 432.32 416.25 431.04 417.46C430.545 417.979 430.096 418.542 429.7 419.14C428.732 420.412 427.503 421.463 426.096 422.222C424.688 422.981 423.135 423.43 421.54 423.54V423.54Z" fill="#3F3D56"/>
<path id="Vector_38" d="M449.81 402.63C453.28 396.3 453.12 388.71 454.11 381.56C454.217 379.666 454.882 377.847 456.02 376.33C458.02 374.07 461.55 374.04 464.57 374.33C465.46 374.43 466.57 374.85 466.52 375.74C466.45 376.059 466.294 376.353 466.07 376.59C463.143 380.368 461.422 384.94 461.13 389.71C462.7 390.8 465.13 388.56 466.64 389.71C467.64 390.55 467.18 392.21 466.58 393.41C465.187 396.19 463.75 398.95 462.27 401.69C461.089 404.105 459.548 406.327 457.7 408.28C456.43 409.5 454.94 410.46 453.65 411.66C450.65 414.47 448.84 418.44 445.74 421.18C445.478 421.464 445.124 421.645 444.74 421.69C444.346 421.662 443.974 421.495 443.69 421.22C442.141 419.96 440.857 418.407 439.91 416.65C438.73 414.47 438.91 413.83 440.77 412.29C444.25 409.54 447.64 406.59 449.81 402.63Z" fill="#BE6F72"/>
<path id="Vector_39" d="M415.74 419.24C416.34 419.61 417.08 420.03 417.74 419.72C418.01 419.557 418.239 419.335 418.41 419.07C419.553 417.544 420.507 415.886 421.25 414.13C421.378 413.882 421.45 413.609 421.46 413.33C421.46 412.69 420.89 412.22 420.36 411.85C417.52 410.04 414.467 408.589 411.27 407.53C408.63 406.53 405.87 405.66 403.07 405.91C402.018 405.981 400.991 406.263 400.051 406.741C399.111 407.219 398.277 407.882 397.6 408.69C395.6 411.26 398.95 412.04 401.05 412.97C405.91 415.18 411.17 416.46 415.74 419.24Z" fill="#F9A826"/>
<path id="Vector_40" opacity="0.1" d="M412.59 436.24C412.556 436.468 412.577 436.701 412.65 436.92C412.723 437.139 412.846 437.338 413.01 437.5C413.3 436.08 412.92 434.58 413.22 433.15C413.66 431 415.75 429.38 415.93 427.22C412.1 426.47 412.62 433.92 412.59 436.24Z" fill="black"/>
<path id="Vector_41" d="M408.77 373.97C411.31 371.9 409.84 367.56 411.56 364.78C412.56 363.26 414.25 362.46 415.91 361.78C417.913 360.843 420.06 360.248 422.26 360.02C423.362 359.914 424.473 360.058 425.512 360.44C426.551 360.823 427.49 361.435 428.26 362.23C428.91 362.97 429.35 363.87 429.96 364.64C430.715 365.538 431.7 366.215 432.809 366.599C433.918 366.983 435.111 367.059 436.26 366.82C437.59 366.52 438.97 365.51 438.88 364.15C438.73 363.323 438.307 362.57 437.68 362.01L434.82 358.84C431.57 355.24 427.96 351.42 423.19 350.52C419.87 349.89 416.47 350.78 413.27 351.85C411.98 352.28 410.53 352.92 410.17 354.23C409.93 355.13 410.29 356.11 410.08 357.02C409.67 358.83 407.35 359.44 406.27 360.96C405.19 362.48 405.52 364.28 405.21 365.96C404.9 367.64 404 369.28 403.89 371.02C403.82 372.07 404.35 374.02 405.53 374.4C406.71 374.78 408.04 372.72 408.77 373.97Z" fill="#3F3D56"/>
<path id="Vector_42" d="M437.91 362.71C437.067 358.31 435.249 354.155 432.59 350.55C430.226 347.181 426.937 344.57 423.12 343.03C421.212 342.284 419.16 341.981 417.118 342.142C415.076 342.303 413.097 342.925 411.33 343.96C408.706 345.833 406.665 348.408 405.44 351.39C402.85 356.97 401.89 363.79 404.9 369.15C406.1 367.69 408.16 368.35 409.98 367.82C412.26 367.17 414.19 365.65 416.36 364.7C422.91 361.81 430.91 364.15 437.91 362.71Z" fill="#FED253"/>
<path id="Vector_43" opacity="0.1" d="M406.43 362.4C406.2 360.6 406.05 358.51 407.33 357.23C407.394 357.152 407.475 357.089 407.567 357.047C407.659 357.006 407.759 356.986 407.86 356.99C407.949 357.019 408.032 357.066 408.102 357.128C408.173 357.19 408.23 357.265 408.27 357.35C409.009 358.516 409.638 359.748 410.15 361.03C409.405 360.858 408.625 360.914 407.912 361.19C407.199 361.467 406.585 361.951 406.15 362.58" fill="black"/>
<path id="Vector_44" opacity="0.1" d="M429.8 357.32L429.44 353.75C429.382 353.456 429.406 353.151 429.51 352.87C429.661 352.635 429.894 352.463 430.163 352.389C430.433 352.316 430.72 352.344 430.97 352.47C431.462 352.743 431.867 353.148 432.14 353.64C432.972 354.918 433.663 356.283 434.2 357.71C432.589 357.4 430.933 357.42 429.33 357.77" fill="black"/>
<path id="Vector_45" d="M296.06 646.07C296.135 646.476 296.126 646.892 296.033 647.294C295.94 647.696 295.765 648.075 295.519 648.406C295.274 648.737 294.962 649.014 294.604 649.22C294.246 649.425 293.85 649.555 293.44 649.6C290.66 650.54 287.71 651.47 285.74 653.6C283.77 655.73 283.38 659.68 285.74 661.41C286.946 662.137 288.331 662.515 289.74 662.5C294.27 662.81 298.99 662.75 303.1 660.83C306.04 659.47 308.81 657.15 312.04 657.36C313.71 657.46 315.49 658.24 316.98 657.48C318.47 656.72 318.89 654.6 318.9 652.83C318.938 649.135 318.381 645.458 317.25 641.94C317.1 641.46 310.74 641.09 309.98 640.94L302.27 639.94C300.81 639.75 297.66 638.65 296.51 639.87C295.36 641.09 296.06 644.62 296.06 646.07Z" fill="#F9A826"/>
<path id="Vector_46" d="M342.07 621.11C342.396 622.911 342.926 624.669 343.65 626.35C344.72 629.07 346.09 631.96 348.71 633.28C351.09 634.47 354.01 634.04 356.43 632.91C357.44 632.492 358.325 631.82 359 630.96C359.781 629.599 360.129 628.033 360 626.47C360 622.6 359.77 618.6 358 615.16C356.48 612.16 353.83 609.58 353.79 606.26L344.68 608.02C344.192 608.067 343.728 608.251 343.34 608.55C343.051 608.854 342.851 609.231 342.76 609.64C341.787 613.382 341.553 617.278 342.07 621.11V621.11Z" fill="#F9A826"/>
<path id="Vector_47" d="M233.28 526.11C232.9 529.33 233.06 532.78 234.74 535.56C236.42 538.34 239.96 540.18 243.02 539.07C243.177 539.03 243.324 538.959 243.453 538.861C243.582 538.763 243.69 538.64 243.77 538.5C243.851 538.162 243.805 537.806 243.64 537.5C242.289 533.895 242.4 529.904 243.95 526.38C244.15 525.92 244.58 525.38 245.05 525.56C245.247 525.66 245.405 525.821 245.5 526.02C245.984 526.858 246.226 527.813 246.2 528.78C246.059 529.656 246.032 530.547 246.12 531.43C246.31 532.29 247.23 533.1 248.03 532.73C248.261 532.588 248.461 532.4 248.618 532.179C248.774 531.957 248.884 531.706 248.94 531.44C251.17 524.99 250.16 517.94 249.14 511.19C249.149 511.035 249.123 510.88 249.065 510.736C249.007 510.592 248.918 510.463 248.805 510.357C248.691 510.251 248.556 510.171 248.408 510.123C248.26 510.076 248.104 510.061 247.95 510.08C243.23 509.61 240.65 508.48 237.95 512.87C235.63 516.57 233.28 521.66 233.28 526.11Z" fill="#F9A826"/>
<path id="Vector_48" d="M288.46 509.7C287.06 515.52 285.65 521.41 285.56 527.39C285.585 531.115 285.865 534.834 286.4 538.52L287.45 547.18C287.81 550.1 288.16 553.01 288.67 555.9C288.995 557.389 289.173 558.906 289.2 560.43C289.102 561.932 288.864 563.422 288.49 564.88C287.861 567.942 287.51 571.055 287.44 574.18C287.33 579.18 287.95 584.18 288.34 589.18C289.119 599.144 289.001 609.157 287.99 619.1C287.586 621.784 288.169 624.523 289.63 626.81C290.223 627.531 290.711 628.332 291.08 629.19C291.83 631.48 290.08 633.77 289.63 636.12C289.342 637.952 289.793 639.824 290.885 641.324C291.976 642.824 293.618 643.83 295.45 644.12C303.45 645.07 311.67 644.64 318.88 648.3C319.64 646.08 317.98 643.56 318.74 641.3C319.22 639.9 320.54 638.99 321.44 637.81C322.649 636.012 323.252 633.875 323.16 631.71C323.195 628.884 322.693 626.078 321.68 623.44C320.83 621.24 319.61 619.07 319.68 616.71C319.68 615.55 320.09 614.33 319.62 613.26C319.298 612.645 318.86 612.099 318.33 611.65C315.341 608.376 313.505 604.215 313.1 599.8C312.71 595.419 312.851 591.007 313.52 586.66C314.01 582.52 314.67 578.15 317.3 574.92C316.08 565.126 316.797 555.188 319.41 545.67C319.67 544.79 320.08 543.77 320.98 543.56C321.338 543.523 321.699 543.573 322.033 543.706C322.367 543.838 322.664 544.049 322.9 544.32C324.47 545.79 325.22 547.92 325.9 549.96C326.65 552.17 327.41 554.53 326.84 556.79C326.6 557.79 326.12 558.67 325.84 559.63C325.232 561.559 325.338 563.643 326.14 565.5C326.531 566.179 326.776 566.931 326.86 567.71C326.767 568.379 326.565 569.027 326.26 569.63C325.889 570.813 325.771 572.061 325.914 573.293C326.057 574.525 326.458 575.713 327.09 576.78C328.365 578.903 329.937 580.833 331.76 582.51C330.889 586.348 331.114 590.354 332.41 594.07C332.504 594.237 332.563 594.422 332.585 594.612C332.608 594.802 332.592 594.995 332.54 595.18C332.36 595.56 331.9 595.7 331.54 595.97C330.54 596.79 331.16 598.34 331.83 599.41C333.666 602.347 335.694 605.16 337.9 607.83C339.9 610.22 339.72 614.83 342.7 615.69C343.952 615.96 345.248 615.96 346.5 615.69C349.44 615.24 352.72 614.39 354.16 611.79C354.75 610.72 354.99 609.42 355.91 608.62C356.83 607.82 358.02 607.68 358.53 606.72C359.04 605.76 358.47 604.5 358.64 603.39C358.81 602.28 359.78 601.39 360.09 600.22C360.83 597.52 357.68 595.3 357.25 592.54C356.63 588.54 361.67 585.54 361.46 581.54C361.02 572.85 360.74 564.12 360.29 555.43C359.725 547.646 359.645 539.834 360.05 532.04C360.4 527.19 361.05 522.11 359.27 517.6C356.71 511.24 349.65 507.67 342.82 506.99C335.99 506.31 329.18 507.93 322.41 508.99C311.174 510.722 299.759 510.96 288.46 509.7V509.7Z" fill="#3F3D56"/>
<path id="Vector_49" d="M308.76 414.12C317.608 414.12 324.78 406.948 324.78 398.1C324.78 389.252 317.608 382.08 308.76 382.08C299.912 382.08 292.74 389.252 292.74 398.1C292.74 406.948 299.912 414.12 308.76 414.12Z" fill="#FBBEBE"/>
<path id="Vector_50" d="M302.24 417.11C301.696 418.377 300.781 419.45 299.615 420.187C298.45 420.924 297.088 421.291 295.71 421.24C295.13 423.64 296.52 426.06 298.11 427.95C301.412 431.792 305.678 434.684 310.47 436.327C315.262 437.971 320.405 438.307 325.37 437.3C327.302 436.954 329.135 436.19 330.74 435.06C332.904 433.253 334.357 430.737 334.84 427.96C335.3 425.202 335.431 422.399 335.23 419.61C335.286 419.059 335.129 418.508 334.79 418.07C334.39 417.76 333.896 417.598 333.39 417.61C330.01 417.31 326.48 417.18 323.51 415.52C320.54 413.86 318.43 410.11 319.86 407.03C319.63 407.51 313.79 407.74 313.02 407.84C310.61 408.18 308.2 408.56 305.8 409C304.647 409.063 303.507 409.279 302.41 409.64C300.96 410.39 301.5 410.02 301.84 411.38C302.35 413.46 303.1 414.95 302.24 417.11Z" fill="#FBBEBE"/>
<path id="Vector_51" d="M294.67 403.41C295.12 402.41 296.33 402.04 297.07 401.24C298.49 399.72 297.85 397.29 298.07 395.24C298.43 392.24 300.92 389.73 303.77 388.66C306.676 387.727 309.769 387.531 312.77 388.09C314.214 388.195 315.61 388.659 316.83 389.44C317.35 389.82 317.83 390.31 318.32 390.66C319.213 391.2 320.282 391.369 321.298 391.132C322.315 390.895 323.198 390.269 323.76 389.39C320.22 385.13 316.3 380.63 310.92 379.32C309.074 378.943 307.194 378.765 305.31 378.79C302.82 378.74 300.25 378.7 297.95 379.65C294.82 380.94 292.62 383.91 291.49 387.11C290.502 390.353 289.973 393.72 289.92 397.11C289.715 399.372 289.715 401.648 289.92 403.91C290.307 406.999 291.454 409.944 293.26 412.48C293.504 412.874 293.849 413.195 294.26 413.41C298.82 415.41 294.3 404.24 294.67 403.41Z" fill="#3F3D56"/>
<path id="Vector_52" d="M323.24 386.92C322.69 382.21 319.33 378.32 315.76 375.19C312.883 372.476 309.455 370.413 305.71 369.14C301.94 368.03 297.6 368.27 294.37 370.52C291.77 372.33 290.12 375.21 288.85 378.11C287.182 381.532 286.355 385.304 286.44 389.11C286.69 392.89 288.53 396.72 291.81 398.63C292.99 396.89 295.04 395.99 297.01 395.28C305.596 392.022 314.352 389.232 323.24 386.92V386.92Z" fill="#FED253"/>
<path id="Vector_53" opacity="0.1" d="M292.91 384.96C293.23 384.96 293.44 385.29 293.6 385.56C294.414 386.829 295.114 388.167 295.69 389.56C294.52 389.81 292.51 390.09 291.93 389.06C291.62 388.54 291.99 384.91 292.91 384.96Z" fill="black"/>
<path id="Vector_54" opacity="0.1" d="M315.7 382.7C315.46 382.93 315.18 382.46 315.18 382.12V378.24C315.173 378.132 315.198 378.025 315.25 377.93C315.291 377.882 315.342 377.844 315.399 377.816C315.455 377.789 315.517 377.773 315.58 377.77C316.39 377.68 317.06 378.37 317.58 379.03C318.369 380.1 319.056 381.241 319.63 382.44L315.4 382.31" fill="black"/>
<path id="Vector_55" d="M335.91 416.45C332.41 417.98 328.52 419.94 327.47 423.62C327.263 424.266 327.218 424.953 327.34 425.62C327.596 426.405 328.083 427.093 328.739 427.595C329.394 428.097 330.186 428.388 331.01 428.43C332.657 428.47 334.294 428.17 335.82 427.55L356.47 420.73C357.03 420.55 357.67 420.28 357.81 419.73C357.846 419.384 357.776 419.035 357.61 418.73C356.97 417.17 356.34 413.98 355 412.89C353.9 412.01 351.72 412.32 350.39 412.34C345.27 412.38 340.46 414.45 335.91 416.45Z" fill="#F9A826"/>
</g>
</svg>
