<svg id="visual" viewBox="0 0 960 100" width="960" height="100" xmlns="http://www.w3.org/2000/svg" xmlns:xlink="http://www.w3.org/1999/xlink" version="1.1"><rect x="0" y="0" width="960" height="100" fill="#312a1e"></rect><path d="M0 84L22.8 81.7C45.7 79.3 91.3 74.7 137 71.7C182.7 68.7 228.3 67.3 274 66.2C319.7 65 365.3 64 411.2 65.8C457 67.7 503 72.3 548.8 72.8C594.7 73.3 640.3 69.7 686 67.8C731.7 66 777.3 66 823 68.2C868.7 70.3 914.3 74.7 937.2 76.8L960 79L960 101L937.2 101C914.3 101 868.7 101 823 101C777.3 101 731.7 101 686 101C640.3 101 594.7 101 548.8 101C503 101 457 101 411.2 101C365.3 101 319.7 101 274 101C228.3 101 182.7 101 137 101C91.3 101 45.7 101 22.8 101L0 101Z" fill="#ff8427" stroke-linecap="round" stroke-linejoin="miter"></path></svg>