<svg id="visual" viewBox="0 0 960 100" width="960" height="100" xmlns="http://www.w3.org/2000/svg" xmlns:xlink="http://www.w3.org/1999/xlink" version="1.1"><rect x="0" y="0" width="960" height="100" fill="#312a1e"></rect><path d="M0 32L22.8 30.7C45.7 29.3 91.3 26.7 137 23.8C182.7 21 228.3 18 274 17.5C319.7 17 365.3 19 411.2 21.3C457 23.7 503 26.3 548.8 27.8C594.7 29.3 640.3 29.7 686 27.5C731.7 25.3 777.3 20.7 823 19.5C868.7 18.3 914.3 20.7 937.2 21.8L960 23L960 0L937.2 0C914.3 0 868.7 0 823 0C777.3 0 731.7 0 686 0C640.3 0 594.7 0 548.8 0C503 0 457 0 411.2 0C365.3 0 319.7 0 274 0C228.3 0 182.7 0 137 0C91.3 0 45.7 0 22.8 0L0 0Z" fill="#ff8427" stroke-linecap="round" stroke-linejoin="miter"></path></svg>