<svg xmlns="http://www.w3.org/2000/svg" xmlns:xlink="http://www.w3.org/1999/xlink" viewBox="0 0 67 66" fill="#fff" fill-rule="evenodd" stroke="#000" stroke-linecap="round" stroke-linejoin="round"><use xlink:href="#A" x="1" y="1"/><symbol id="A" overflow="visible"><path d="M4.52 32c0 10.9 6.26 20.29 15.4 24.696L6.956 20.87C5.45 24.348 4.52 28.06 4.52 32zm46.03-1.392c0-3.36-1.276-5.8-2.32-7.536-1.392-2.32-2.666-4.174-2.666-6.492 0-2.55 1.972-4.87 4.64-4.87h.348C45.68 7.188 39.188 4.52 32 4.52A27.9 27.9 0 0 0 9.044 16.926h1.74c2.9 0 7.304-.348 7.304-.348 1.508-.116 1.624 2.086.232 2.32 0 0-1.508.232-3.13.232l9.972 29.68 6.028-17.972-4.29-11.71L24 18.9c-1.508-.116-1.276-2.32.116-2.32 0 0 4.52.348 7.188.348 2.9 0 7.304-.348 7.304-.348 1.508-.116 1.624 2.086.232 2.32 0 0-1.508.232-3.13.232L45.68 48.7l2.8-9.16c1.16-3.826 2.086-6.492 2.086-8.928zm-18.086 3.826L24.232 58.32c2.434.696 5.1 1.16 7.768 1.16 3.246 0 6.26-.6 9.16-1.508-.116-.116-.116-.232-.232-.348zM56.116 18.9l.232 2.8c0 2.8-.464 5.914-2.086 9.856l-8.348 24.232c8.116-4.754 13.68-13.566 13.68-23.768-.116-4.754-1.392-9.16-3.48-13.1zM32 0C14.376 0 0 14.376 0 32s14.376 32 32 32 32-14.376 32-32S49.624 0 32 0zm0 62.608C15.188 62.608 1.508 48.928 1.508 32 1.534 15.171 15.171 1.534 32 1.508 48.829 1.534 62.466 15.171 62.492 32c0 16.928-13.68 30.608-30.492 30.608z" stroke="none" fill="#00749a" fill-rule="nonzero"/></symbol></svg>